<svg id="Layer_1" enable-background="new 0 0 496 496" height="512" viewBox="0 0 496 496" width="512" xmlns="http://www.w3.org/2000/svg"><circle cx="248" cy="248" fill="#ffd3be" r="248"/><circle cx="248" cy="248" fill="#ff5a7f" r="209.471"/><path d="m437.601 158.869c33.709 95.054-4.539 202.246-95.986 255.432-6.415 3.731-19.165.618-25.979 3.716-8.389 3.814-10.94 13.669-19.861 16.452-49.797 15.535-106.548 13.997-158.074-8.374 138.025 85.666 319.77-13.041 319.77-178.095 0-31.877-7.133-62.084-19.87-89.131z" fill="#d04d7f"/><path d="m53.853 268.316c0-90.814 48.599-174.223 140.117-195.561 11.578-2.699 9.055 10.839 33.672 8.321 20.358-2.082 22.003-19.208 32.658-19.208 80.091 0 149.527 45.608 183.76 112.269-29.867-79.238-106.374-135.608-196.06-135.608-115.687 0-209.471 93.784-209.471 209.471 0 53.487 20.058 102.281 53.047 139.3-23.759-33.631-37.723-74.675-37.723-118.984z" fill="#ff8595"/><path d="m284.059 306.532c-6.045 0-9.957-6.53-6.989-11.882l26.167-47.173c8.454-15.241 24.533-24.709 41.963-24.709h32.175c9.053 0 16.417-7.364 16.417-16.417 0-9.064-7.322-16.425-16.426-16.425h-39.438c-9.495 0-18.42-3.69-25.133-10.404-22.327-22.327-6.339-60.683 25.138-60.683h80.963c4.418 0 8 3.582 8 8s-3.582 8-8 8h-80.963c-17.305 0-26.103 21.089-13.823 33.369 3.69 3.691 8.598 5.718 13.817 5.718h39.439c17.923 0 32.426 14.494 32.426 32.425 0 17.875-14.542 32.417-32.417 32.417h-32.175c-11.618 0-22.336 6.311-27.971 16.47l-26.167 47.174c-1.462 2.634-4.191 4.12-7.003 4.12z" fill="#846069"/><path d="m281.717 367.464c-10.201 22.019-33.482 34.91-57.557 31.871-93.18-11.761-104.319-120.895-104.319-120.895s-5.003-18.702-15.693-32.628c-19.711-25.681-23.5-63.199 10.433-94.641 43.695-40.487 129.46 11.714 99.475 71.774-19.485 39.027-56.241 38.35-29.341 52.047 13.933 7.094 31.352 15.428 43.852 8.825 8.676-4.583 27.075-27.102 20.371-49.727-3.834-12.938-8.816-38.485 16.404-36.545 36.426 2.802 13.58 32.495 13.58 32.495s4.85 35.89-23.765 69.841c0 0 33.5-14.984 49.099-12.929 13.573 1.788 25.618 23.544 32.483 38.833 3.519 7.839 12.13 12.101 20.488 10.106 11.592-2.766 26.164-3.246 27.67 11.15 1.865 8.582-2.649 17.275-10.743 20.685l-19.521 8.224c-12.342 4.465-26.109-.586-32.634-11.974l-8.619-15.043c-5.354-9.344-19.022-8.753-23.549 1.018z" fill="#ffd3be"/><g fill="#ffa991"><path d="m219.209 383.787c-1.752-.472-12.27-11.061-17.761-14.068-6.828-3.739-18.213-3.254-23.715-8.061-41.024-35.832-47.134-95.694-47.134-95.694s-5.003-18.702-15.693-32.628c-16.802-21.891-22.014-52.379-2.177-80.376-31.906 31.068-27.92 67.655-8.581 92.852 10.689 13.927 15.693 32.628 15.693 32.628s11.139 109.134 104.319 120.895c21.667 2.734 42.685-7.437 54.11-25.549-17.565 15.119-37.401 15.842-59.061 10.001z"/><path d="m365.39 363.473c-12.342 4.465-26.109-.586-32.634-11.975l-8.619-15.042c-5.354-9.344-19.022-8.753-23.549 1.019l-2.466 5.323c5.524-1.597 11.964.385 15.258 6.134l8.619 15.043c6.525 11.389 20.291 16.44 32.634 11.974l19.521-8.224c5.444-2.294 9.257-6.981 10.61-12.414z"/><path d="m255.351 299.794c-4.65 5.395-10.208 10.333-16.708 13.673-21.086 10.838-56.099-3.76-56.099-3.76s-7.927 5.638 13.997 13.108c24.86 8.47 49.346.214 60.198-14.646 1.785-2.444 3.882-6.647 5.977-11.43-3.933 1.555-6.668 2.748-7.365 3.055z"/><path d="m272.467 270.949c-1.148 2.877-3.297 7.836-6.485 13.499 2.646-4.604 4.775-9.134 6.485-13.499z"/><path d="m188.165 220.252c4.256 10.763 16.625 10.076 22.255 9.229 1.261-2.048 2.48-4.22 3.636-6.536-10.981 1.25-20.412-3.501-24.223-4.808-1.273-.435-2.163.864-1.668 2.115z"/></g><ellipse cx="266.056" cy="76.605" fill="#ff8595" rx="9.318" ry="7.167"/><ellipse cx="188.703" cy="88.836" fill="#ff8595" rx="9.325" ry="5.58" transform="matrix(.983 -.183 .183 .983 -13.066 36.016)"/><ellipse cx="285.047" cy="424.114" fill="#d04d7f" rx="10.37" ry="5.752" transform="matrix(.935 -.356 .356 .935 -132.263 129.195)"/><ellipse cx="183.726" cy="352.064" fill="#ffa991" rx="3.476" ry="5.667" transform="matrix(.5 -.866 .866 .5 -213.033 335.144)"/></svg>